<svg width="107" height="19" viewBox="0 0 107 19" fill="none" xmlns="http://www.w3.org/2000/svg">
<path fill-rule="evenodd" clip-rule="evenodd" d="M11.7534 6.90846L9.50868 0L7.26399 6.90846L0 6.90846L5.87669 11.1781L3.63199 18.0866L9.50868 13.8169L15.3854 18.0866L13.1407 11.1781L19.0174 6.90846L11.7534 6.90846ZM33.7491 6.90846L31.5044 0L29.2597 6.90846L21.9957 6.90846L27.8724 11.1781L25.6277 18.0866L31.5044 13.8169L37.3811 18.0866L35.1364 11.1781L41.0131 6.90846L33.7491 6.90846ZM53.4999 0L55.7446 6.90846L63.0086 6.90846L57.1319 11.1781L59.3766 18.0866L53.4999 13.8169L47.6232 18.0866L49.8679 11.1781L43.9913 6.90846L51.2552 6.90846L53.4999 0ZM97.4913 0L99.736 6.90846L107 6.90846L101.123 11.1781L103.368 18.0866L97.4913 13.8169L91.6146 18.0866L93.8593 11.1781L87.9826 6.90846L95.2466 6.90846L97.4913 0ZM75.4956 0L77.7403 6.90846L85.0042 6.90846L79.1276 11.1781L81.3723 18.0866L75.4956 13.8169L69.6189 18.0866L71.8636 11.1781L65.9869 6.90846L73.2509 6.90846L75.4956 0Z" fill="white"/>
</svg>
