<svg width="100" height="100" viewBox="0 0 100 100" fill="none" xmlns="http://www.w3.org/2000/svg">
<g filter="url(#filter0_d)">
<circle cx="50" cy="40" r="30" fill="white"/>
</g>
<path d="M38 31.05C43.4 30.375 50.15 27 50.15 27C50.15 27 56.9 30.375 62.3 31.05V37.8C62.3 44.55 58.4474 50.8271 50.15 54C41.3219 49.8332 38 44.55 38 37.8V31.05Z" stroke="#14D596" stroke-width="2"/>
<path d="M38 31.05C43.4 30.375 50.15 27 50.15 27C50.15 27 56.9 30.375 62.3 31.05V37.8C62.3 44.55 58.4474 50.8271 50.15 54C41.3219 49.8332 38 44.55 38 37.8V31.05Z" stroke="url(#paint0_linear)" stroke-width="2"/>
<path d="M46.775 39.825L48.8 41.85L54.2 36.45" stroke="#14D596" stroke-width="2" stroke-linecap="round"/>
<path d="M46.775 39.825L48.8 41.85L54.2 36.45" stroke="url(#paint1_linear)" stroke-width="2" stroke-linecap="round"/>
<defs>
<filter id="filter0_d" x="0" y="0" width="100" height="100" filterUnits="userSpaceOnUse" color-interpolation-filters="sRGB">
<feFlood flood-opacity="0" result="BackgroundImageFix"/>
<feColorMatrix in="SourceAlpha" type="matrix" values="0 0 0 0 0 0 0 0 0 0 0 0 0 0 0 0 0 0 127 0"/>
<feMorphology radius="5" operator="erode" in="SourceAlpha" result="effect1_dropShadow"/>
<feOffset dy="10"/>
<feGaussianBlur stdDeviation="12.5"/>
<feColorMatrix type="matrix" values="0 0 0 0 0 0 0 0 0 0.0745098 0 0 0 0 0.239216 0 0 0 0.1 0"/>
<feBlend mode="normal" in2="BackgroundImageFix" result="effect1_dropShadow"/>
<feBlend mode="normal" in="SourceGraphic" in2="effect1_dropShadow" result="shape"/>
</filter>
<linearGradient id="paint0_linear" x1="50.15" y1="27" x2="50.15" y2="54" gradientUnits="userSpaceOnUse">
<stop stop-color="white"/>
<stop offset="0.0001" stop-color="#2AE1C1"/>
<stop offset="1" stop-color="#14D596"/>
</linearGradient>
<linearGradient id="paint1_linear" x1="50.4875" y1="36.45" x2="50.4875" y2="41.85" gradientUnits="userSpaceOnUse">
<stop stop-color="white"/>
<stop offset="0.0001" stop-color="#2AE1C1"/>
<stop offset="1" stop-color="#14D596"/>
</linearGradient>
</defs>
</svg>
