<svg width="100" height="100" viewBox="0 0 100 100" fill="none" xmlns="http://www.w3.org/2000/svg">
<g filter="url(#filter0_d)">
<circle cx="50" cy="40" r="30" fill="white"/>
</g>
<path d="M62 28H39.7778V53H62V28Z" stroke="#14D596" stroke-width="2" stroke-linecap="round"/>
<path d="M62 28H39.7778V53H62V28Z" stroke="url(#paint0_linear)" stroke-width="2" stroke-linecap="round"/>
<path d="M56.4444 28V53M42.5556 32.1667H37H42.5556ZM42.5556 37.7222H37H42.5556ZM42.5556 43.2778H37H42.5556ZM42.5556 48.8333H37H42.5556Z" stroke="#14D596" stroke-width="2" stroke-linecap="round" stroke-linejoin="round"/>
<path d="M56.4444 28V53M42.5556 32.1667H37H42.5556ZM42.5556 37.7222H37H42.5556ZM42.5556 43.2778H37H42.5556ZM42.5556 48.8333H37H42.5556Z" stroke="url(#paint1_linear)" stroke-width="2" stroke-linecap="round" stroke-linejoin="round"/>
<defs>
<filter id="filter0_d" x="0" y="0" width="100" height="100" filterUnits="userSpaceOnUse" color-interpolation-filters="sRGB">
<feFlood flood-opacity="0" result="BackgroundImageFix"/>
<feColorMatrix in="SourceAlpha" type="matrix" values="0 0 0 0 0 0 0 0 0 0 0 0 0 0 0 0 0 0 127 0"/>
<feMorphology radius="5" operator="erode" in="SourceAlpha" result="effect1_dropShadow"/>
<feOffset dy="10"/>
<feGaussianBlur stdDeviation="12.5"/>
<feColorMatrix type="matrix" values="0 0 0 0 0 0 0 0 0 0.0745098 0 0 0 0 0.239216 0 0 0 0.1 0"/>
<feBlend mode="normal" in2="BackgroundImageFix" result="effect1_dropShadow"/>
<feBlend mode="normal" in="SourceGraphic" in2="effect1_dropShadow" result="shape"/>
</filter>
<linearGradient id="paint0_linear" x1="50.8889" y1="28" x2="50.8889" y2="53" gradientUnits="userSpaceOnUse">
<stop stop-color="white"/>
<stop offset="0.0001" stop-color="#2AE1C1"/>
<stop offset="1" stop-color="#14D596"/>
</linearGradient>
<linearGradient id="paint1_linear" x1="46.7222" y1="28" x2="46.7222" y2="53" gradientUnits="userSpaceOnUse">
<stop stop-color="white"/>
<stop offset="0.0001" stop-color="#2AE1C1"/>
<stop offset="1" stop-color="#14D596"/>
</linearGradient>
</defs>
</svg>
