<svg width="29" height="29" viewBox="0 0 29 29" fill="none" xmlns="http://www.w3.org/2000/svg">
<path d="M20.5 1H8.5C4.3579 1 1 4.3579 1 8.5V20.5C1 24.6421 4.3579 28 8.5 28H20.5C24.6421 28 28 24.6421 28 20.5V8.5C28 4.3579 24.6421 1 20.5 1Z" stroke="#14D596" stroke-opacity="0.75" stroke-width="2" stroke-miterlimit="10"/>
<path d="M19.5625 14.5C19.5625 11.704 17.296 9.4375 14.5 9.4375C11.704 9.4375 9.4375 11.704 9.4375 14.5C9.4375 17.296 11.704 19.5625 14.5 19.5625C17.296 19.5625 19.5625 17.296 19.5625 14.5ZM22.5625 7.468C22.5625 6.8989 22.0996 6.4375 21.5305 6.4375C21.2572 6.4375 20.9951 6.54607 20.8018 6.73933C20.6086 6.93258 20.5 7.19469 20.5 7.468V7.4695C20.5 8.0386 20.9629 8.5 21.532 8.5C21.8053 8.5 22.0674 8.39143 22.2607 8.19817C22.4539 8.00492 22.5625 7.74281 22.5625 7.4695V7.468V7.468Z" stroke="#14D596" stroke-opacity="0.75" stroke-width="2" stroke-miterlimit="10"/>
</svg>
