<svg width="22" height="22" viewBox="0 0 22 22" fill="none" xmlns="http://www.w3.org/2000/svg">
<path d="M17.25 15.4443C19.5362 16.0171 21 16.8957 21 17.8802C21 19.6036 16.5226 20.9999 11 20.9999C5.47744 20.9999 1 19.6036 1 17.8802C1 16.8957 2.46378 16.0159 4.75 15.4443" stroke="#14D596" stroke-opacity="0.75" stroke-width="1.5" stroke-linecap="round" stroke-linejoin="round"/>
<path d="M11 9.88889V17.6667V9.88889ZM11 9.88889C13.4545 9.88889 15.4444 7.899 15.4444 5.44444C15.4444 2.98989 13.4545 1 11 1C8.54543 1 6.55554 2.98989 6.55554 5.44444C6.55554 7.899 8.54543 9.88889 11 9.88889Z" stroke="#14D596" stroke-opacity="0.75" stroke-width="1.5" stroke-linecap="round"/>
<path d="M8.7778 4.33331C9.39146 4.33331 9.88891 3.83586 9.88891 3.2222C9.88891 2.60853 9.39146 2.11108 8.7778 2.11108C8.16413 2.11108 7.66669 2.60853 7.66669 3.2222C7.66669 3.83586 8.16413 4.33331 8.7778 4.33331Z" stroke="#14D596" stroke-opacity="0.75" stroke-width="1.5" stroke-linecap="round"/>
</svg>
