<svg width="100" height="100" viewBox="0 0 100 100" fill="none" xmlns="http://www.w3.org/2000/svg">
<g filter="url(#filter0_d)">
<circle cx="50" cy="40" r="30" fill="white"/>
</g>
<path d="M40.7778 36.3333L57.4444 28L61.6111 36.3333M38 34.25V50.2222C38 51.7564 39.2436 53 40.7778 53H63V36.3333H40.0833C38.9328 36.3333 38 35.4006 38 34.25ZM38 34.25C38 33.0994 38.9328 32.1667 40.0833 32.1667H49.1111L38 34.25Z" stroke="#14D596" stroke-width="2" stroke-linecap="round"/>
<path d="M40.7778 36.3333L57.4444 28L61.6111 36.3333M38 34.25V50.2222C38 51.7564 39.2436 53 40.7778 53H63V36.3333H40.0833C38.9328 36.3333 38 35.4006 38 34.25ZM38 34.25C38 33.0994 38.9328 32.1667 40.0833 32.1667H49.1111L38 34.25Z" stroke="url(#paint0_linear)" stroke-width="2" stroke-linecap="round"/>
<path d="M63 44.6666H57.4445" stroke="#14D596" stroke-width="2" stroke-linecap="round" stroke-dasharray="0.01 4.5"/>
<path d="M63 44.6666H57.4445" stroke="url(#paint1_linear)" stroke-width="2" stroke-linecap="round" stroke-dasharray="0.01 4.5"/>
<defs>
<filter id="filter0_d" x="0" y="0" width="100" height="100" filterUnits="userSpaceOnUse" color-interpolation-filters="sRGB">
<feFlood flood-opacity="0" result="BackgroundImageFix"/>
<feColorMatrix in="SourceAlpha" type="matrix" values="0 0 0 0 0 0 0 0 0 0 0 0 0 0 0 0 0 0 127 0"/>
<feMorphology radius="5" operator="erode" in="SourceAlpha" result="effect1_dropShadow"/>
<feOffset dy="10"/>
<feGaussianBlur stdDeviation="12.5"/>
<feColorMatrix type="matrix" values="0 0 0 0 0 0 0 0 0 0.0745098 0 0 0 0 0.239216 0 0 0 0.1 0"/>
<feBlend mode="normal" in2="BackgroundImageFix" result="effect1_dropShadow"/>
<feBlend mode="normal" in="SourceGraphic" in2="effect1_dropShadow" result="shape"/>
</filter>
<linearGradient id="paint0_linear" x1="50.5" y1="28" x2="50.5" y2="53" gradientUnits="userSpaceOnUse">
<stop stop-color="white"/>
<stop offset="0.0001" stop-color="#2AE1C1"/>
<stop offset="1" stop-color="#14D596"/>
</linearGradient>
<linearGradient id="paint1_linear" x1="60.2222" y1="44.6666" x2="60.2222" y2="45.6666" gradientUnits="userSpaceOnUse">
<stop stop-color="white"/>
<stop offset="0.0001" stop-color="#2AE1C1"/>
<stop offset="1" stop-color="#14D596"/>
</linearGradient>
</defs>
</svg>
