<svg width="100" height="100" viewBox="0 0 100 100" fill="none" xmlns="http://www.w3.org/2000/svg">
<g filter="url(#filter0_d)">
<circle cx="50" cy="40" r="30" fill="white"/>
</g>
<path d="M47.3333 48.6667H62M38 32.3333L39.6667 34L43.3333 30L38 32.3333ZM47.3333 32.6667H62H47.3333ZM38 40.3333L39.6667 42L43.3333 38L38 40.3333ZM47.3333 40.6667H62H47.3333ZM38 48.3333L39.6667 50L43.3333 46L38 48.3333Z" stroke="#14D596" stroke-width="2" stroke-linecap="round"/>
<path d="M47.3333 48.6667H62M38 32.3333L39.6667 34L43.3333 30L38 32.3333ZM47.3333 32.6667H62H47.3333ZM38 40.3333L39.6667 42L43.3333 38L38 40.3333ZM47.3333 40.6667H62H47.3333ZM38 48.3333L39.6667 50L43.3333 46L38 48.3333Z" stroke="url(#paint0_linear)" stroke-width="2" stroke-linecap="round"/>
<defs>
<filter id="filter0_d" x="0" y="0" width="100" height="100" filterUnits="userSpaceOnUse" color-interpolation-filters="sRGB">
<feFlood flood-opacity="0" result="BackgroundImageFix"/>
<feColorMatrix in="SourceAlpha" type="matrix" values="0 0 0 0 0 0 0 0 0 0 0 0 0 0 0 0 0 0 127 0"/>
<feMorphology radius="5" operator="erode" in="SourceAlpha" result="effect1_dropShadow"/>
<feOffset dy="10"/>
<feGaussianBlur stdDeviation="12.5"/>
<feColorMatrix type="matrix" values="0 0 0 0 0 0 0 0 0 0.0745098 0 0 0 0 0.239216 0 0 0 0.1 0"/>
<feBlend mode="normal" in2="BackgroundImageFix" result="effect1_dropShadow"/>
<feBlend mode="normal" in="SourceGraphic" in2="effect1_dropShadow" result="shape"/>
</filter>
<linearGradient id="paint0_linear" x1="50" y1="30" x2="50" y2="50" gradientUnits="userSpaceOnUse">
<stop stop-color="white"/>
<stop offset="0.0001" stop-color="#2AE1C1"/>
<stop offset="1" stop-color="#14D596"/>
</linearGradient>
</defs>
</svg>
