<svg width="100" height="100" viewBox="0 0 100 100" fill="none" xmlns="http://www.w3.org/2000/svg">
<g filter="url(#filter0_d)">
<circle cx="50" cy="40" r="30" fill="white"/>
</g>
<path d="M49.5 53C56.4036 53 62 47.4036 62 40.5C62 33.5964 56.4036 28 49.5 28C42.5964 28 37 33.5964 37 40.5C37 47.4036 42.5964 53 49.5 53Z" stroke="#14D596" stroke-width="2"/>
<path d="M49.5 53C56.4036 53 62 47.4036 62 40.5C62 33.5964 56.4036 28 49.5 28C42.5964 28 37 33.5964 37 40.5C37 47.4036 42.5964 53 49.5 53Z" stroke="url(#paint0_linear)" stroke-width="2"/>
<path d="M49.5 33.5555V40.5L56.4444 43.2778" stroke="#14D596" stroke-width="2" stroke-linecap="round"/>
<path d="M49.5 33.5555V40.5L56.4444 43.2778" stroke="url(#paint1_linear)" stroke-width="2" stroke-linecap="round"/>
<defs>
<filter id="filter0_d" x="0" y="0" width="100" height="100" filterUnits="userSpaceOnUse" color-interpolation-filters="sRGB">
<feFlood flood-opacity="0" result="BackgroundImageFix"/>
<feColorMatrix in="SourceAlpha" type="matrix" values="0 0 0 0 0 0 0 0 0 0 0 0 0 0 0 0 0 0 127 0"/>
<feMorphology radius="5" operator="erode" in="SourceAlpha" result="effect1_dropShadow"/>
<feOffset dy="10"/>
<feGaussianBlur stdDeviation="12.5"/>
<feColorMatrix type="matrix" values="0 0 0 0 0 0 0 0 0 0.0745098 0 0 0 0 0.239216 0 0 0 0.1 0"/>
<feBlend mode="normal" in2="BackgroundImageFix" result="effect1_dropShadow"/>
<feBlend mode="normal" in="SourceGraphic" in2="effect1_dropShadow" result="shape"/>
</filter>
<linearGradient id="paint0_linear" x1="49.5" y1="28" x2="49.5" y2="53" gradientUnits="userSpaceOnUse">
<stop stop-color="white"/>
<stop offset="0.0001" stop-color="#2AE1C1"/>
<stop offset="1" stop-color="#14D596"/>
</linearGradient>
<linearGradient id="paint1_linear" x1="52.9722" y1="33.5555" x2="52.9722" y2="43.2778" gradientUnits="userSpaceOnUse">
<stop stop-color="white"/>
<stop offset="0.0001" stop-color="#2AE1C1"/>
<stop offset="1" stop-color="#14D596"/>
</linearGradient>
</defs>
</svg>
