<svg width="30" height="21" viewBox="0 0 30 21" fill="none" xmlns="http://www.w3.org/2000/svg">
<path d="M11.8635 5.98438V14.5224C14.7302 12.9654 20.0357 10.2654 20.0357 10.2654L11.8637 5.98438H11.8635Z" stroke="#14D596" stroke-opacity="0.75" stroke-width="2" stroke-linecap="round" stroke-linejoin="round"/>
<path d="M28.5 10.2535V10.0135C28.5 8.96352 28.488 8.00652 28.47 7.68852C28.5264 5.93237 28.1411 4.19016 27.3495 2.62152C26.8212 1.96755 26.0763 1.52431 25.2495 1.37202C21.8474 1.0772 18.4324 0.957542 15.018 1.01352C11.6036 0.957196 8.18858 1.07685 4.7865 1.37202C4.11199 1.49779 3.48747 1.81369 2.9865 2.28252C2.06326 3.4954 1.58885 4.99074 1.644 6.51402C1.554 7.71402 1.518 8.85402 1.515 10.0135H1.5V10.4935C1.5 11.653 1.539 12.7945 1.629 13.993C1.57599 15.5172 2.05309 17.0126 2.979 18.2245C3.48 18.6934 4.10445 19.0093 4.779 19.135C8.18107 19.4302 11.5961 19.5499 15.0105 19.4935C18.4249 19.5495 21.8399 19.4299 25.242 19.135C26.0688 18.9828 26.8137 18.5395 27.342 17.8855C28.1336 16.3169 28.5189 14.5747 28.4625 12.8185C28.4805 12.5005 28.491 11.5375 28.4925 10.4935L28.5 10.2535Z" stroke="#14D596" stroke-opacity="0.75" stroke-width="2" stroke-linecap="round" stroke-linejoin="round"/>
</svg>
