<svg width="72" height="19" viewBox="0 0 72 19" fill="none" xmlns="http://www.w3.org/2000/svg">
<path d="M0.992 1.2H4.88V14.832H13.304V18H0.992V1.2ZM23.3311 18.288C21.5871 18.288 20.0111 17.912 18.6031 17.16C17.2111 16.408 16.1151 15.376 15.3151 14.064C14.5311 12.736 14.1391 11.248 14.1391 9.6C14.1391 7.952 14.5311 6.472 15.3151 5.16C16.1151 3.832 17.2111 2.792 18.6031 2.04C20.0111 1.288 21.5871 0.912 23.3311 0.912C25.0751 0.912 26.6431 1.288 28.0351 2.04C29.4271 2.792 30.5231 3.832 31.3231 5.16C32.1231 6.472 32.5231 7.952 32.5231 9.6C32.5231 11.248 32.1231 12.736 31.3231 14.064C30.5231 15.376 29.4271 16.408 28.0351 17.16C26.6431 17.912 25.0751 18.288 23.3311 18.288ZM23.3311 14.976C24.3231 14.976 25.2191 14.752 26.0191 14.304C26.8191 13.84 27.4431 13.2 27.8911 12.384C28.3551 11.568 28.5871 10.64 28.5871 9.6C28.5871 8.56 28.3551 7.632 27.8911 6.816C27.4431 6 26.8191 5.368 26.0191 4.92C25.2191 4.456 24.3231 4.224 23.3311 4.224C22.3391 4.224 21.4431 4.456 20.6431 4.92C19.8431 5.368 19.2111 6 18.7471 6.816C18.2991 7.632 18.0751 8.56 18.0751 9.6C18.0751 10.64 18.2991 11.568 18.7471 12.384C19.2111 13.2 19.8431 13.84 20.6431 14.304C21.4431 14.752 22.3391 14.976 23.3311 14.976ZM46.7971 9.336H50.3491V16.152C49.4371 16.84 48.3811 17.368 47.1811 17.736C45.9811 18.104 44.7731 18.288 43.5571 18.288C41.8131 18.288 40.2451 17.92 38.8531 17.184C37.4611 16.432 36.3651 15.4 35.5651 14.088C34.7811 12.76 34.3891 11.264 34.3891 9.6C34.3891 7.936 34.7811 6.448 35.5651 5.136C36.3651 3.808 37.4691 2.776 38.8771 2.04C40.2851 1.288 41.8691 0.912 43.6291 0.912C45.1011 0.912 46.4371 1.16 47.6371 1.656C48.8371 2.152 49.8451 2.872 50.6611 3.816L48.1651 6.12C46.9651 4.856 45.5171 4.224 43.8211 4.224C42.7491 4.224 41.7971 4.448 40.9651 4.896C40.1331 5.344 39.4851 5.976 39.0211 6.792C38.5571 7.608 38.3251 8.544 38.3251 9.6C38.3251 10.64 38.5571 11.568 39.0211 12.384C39.4851 13.2 40.1251 13.84 40.9411 14.304C41.7731 14.752 42.7171 14.976 43.7731 14.976C44.8931 14.976 45.9011 14.736 46.7971 14.256V9.336ZM62.0968 18.288C60.3528 18.288 58.7768 17.912 57.3688 17.16C55.9768 16.408 54.8808 15.376 54.0808 14.064C53.2968 12.736 52.9048 11.248 52.9048 9.6C52.9048 7.952 53.2968 6.472 54.0808 5.16C54.8808 3.832 55.9768 2.792 57.3688 2.04C58.7768 1.288 60.3528 0.912 62.0968 0.912C63.8408 0.912 65.4088 1.288 66.8008 2.04C68.1928 2.792 69.2888 3.832 70.0888 5.16C70.8888 6.472 71.2888 7.952 71.2888 9.6C71.2888 11.248 70.8888 12.736 70.0888 14.064C69.2888 15.376 68.1928 16.408 66.8008 17.16C65.4088 17.912 63.8408 18.288 62.0968 18.288ZM62.0968 14.976C63.0888 14.976 63.9848 14.752 64.7848 14.304C65.5848 13.84 66.2088 13.2 66.6568 12.384C67.1208 11.568 67.3528 10.64 67.3528 9.6C67.3528 8.56 67.1208 7.632 66.6568 6.816C66.2088 6 65.5848 5.368 64.7848 4.92C63.9848 4.456 63.0888 4.224 62.0968 4.224C61.1048 4.224 60.2088 4.456 59.4088 4.92C58.6088 5.368 57.9768 6 57.5128 6.816C57.0648 7.632 56.8408 8.56 56.8408 9.6C56.8408 10.64 57.0648 11.568 57.5128 12.384C57.9768 13.2 58.6088 13.84 59.4088 14.304C60.2088 14.752 61.1048 14.976 62.0968 14.976Z" fill="#14D596"/>
</svg>
