<svg width="133" height="40" viewBox="0 0 133 40" fill="none" xmlns="http://www.w3.org/2000/svg">
<path d="M13.7418 8.60927H18.1915C20.678 8.60927 21.9868 7.94702 21.9868 6.62252C21.9868 6.09271 21.725 5.69536 21.2015 5.43046C20.678 5.16557 20.0237 4.90067 19.1076 4.90067C17.7988 4.90067 16.621 5.29801 15.4431 6.09271C14.3961 6.75497 13.7418 7.54967 13.7418 8.60927ZM15.8358 13.1126L17.5371 15.2318L18.5841 16.4238C20.4163 18.8079 21.4633 21.1921 21.4633 23.8411C21.4633 26.3576 20.5472 28.6092 18.8458 30.4635C16.621 33.1126 13.6109 34.4371 9.81555 34.4371C6.93632 34.4371 4.58059 33.51 2.74836 31.7881C0.916118 30.0662 0 27.8146 0 25.0332C0 21.7219 1.43961 18.8079 4.31884 16.5563C5.88933 15.3643 7.19806 14.7019 8.50681 14.7019C9.16118 14.7019 9.68468 14.8344 10.0773 15.2318C10.4699 15.6292 10.7317 16.1589 10.7317 16.6887C10.7317 17.4835 10.2082 18.1457 9.29205 18.8079L7.85243 19.7351C6.93632 20.2649 6.28195 21.0597 5.75845 21.9868C5.23496 22.9138 4.84234 23.8411 4.97321 24.7682C4.97321 26.2252 5.49671 27.4173 6.41282 28.4768C7.45981 29.404 8.63769 29.9338 10.2082 29.9338C11.9095 29.9338 13.3491 29.2716 14.6579 28.0795C15.9666 26.8874 16.4901 25.2981 16.4901 23.7086C16.4901 22.649 16.2283 21.5894 15.7048 20.6622C15.1814 19.7351 14.1344 18.4106 12.433 16.5563C11.2552 15.2318 10.4699 14.1722 9.94642 13.1126H4.97321C3.27185 13.1126 2.35574 12.5828 2.35574 11.3907C2.35574 10.596 2.61747 9.93378 3.27185 9.40397C3.79535 9.00662 4.71146 8.74173 5.75845 8.74173H8.89943C9.16118 6.35762 10.2082 4.23841 12.3022 2.649C14.2653 1.0596 16.621 0.2649 19.5002 0.2649C21.5942 0.2649 23.2955 0.794702 24.6044 1.98676C25.913 3.17881 26.5674 4.63576 26.5674 6.49006C26.5674 8.87417 25.5204 10.7285 23.4264 12.053C22.2485 12.7152 20.4163 13.1126 17.7988 13.1126H15.8358ZM31.8024 11.7881H32.3259C33.8963 11.7881 34.6816 12.3179 34.6816 13.51C34.6816 14.3046 34.4198 14.8344 33.8963 15.2318C33.3728 15.6292 32.5876 15.894 31.5406 15.894H30.2319L27.7452 22.1192H29.8393C31.4098 22.1192 32.195 22.649 32.195 23.8411C32.195 24.6357 31.9333 25.1656 31.4098 25.5629C30.8863 25.9603 30.1011 26.2252 29.1849 26.2252H25.913C24.9969 26.2252 24.2117 25.9603 23.6882 25.5629C23.1647 25.1656 22.903 24.5033 22.903 23.7086C22.903 23.3113 23.0339 22.7814 23.2955 22.1192L23.6882 21.3245L25.7822 15.894H25.5204C24.2117 15.894 23.4264 15.3643 23.4264 14.3046C23.4264 13.51 23.6882 12.9801 24.2117 12.4503C24.7352 12.053 25.5204 11.7881 26.4366 11.7881H27.2217L28.1379 9.27152L28.2687 8.74173C28.7922 7.28476 29.7084 6.62252 31.0171 6.62252C31.5406 6.62252 31.9333 6.75497 32.3259 7.15232C32.7185 7.54967 32.8494 7.94702 32.8494 8.34437C32.8494 8.87417 32.7185 9.40397 32.3259 10.1987L31.8024 11.7881ZM46.722 21.9868H48.8159C49.6012 21.9868 50.2556 22.1192 50.6483 22.3841C51.0408 22.649 51.1718 23.0464 51.1718 23.7086C51.1718 24.5033 50.9099 25.0332 50.3864 25.5629C49.8629 25.9603 49.0777 26.2252 48.0307 26.2252H44.7589C43.7119 26.2252 43.0575 25.8278 42.6649 25.0332C42.0105 25.8278 41.0944 26.2252 40.1783 26.2252H37.5608C36.5138 26.2252 35.5978 25.8278 34.9433 25.1656C34.1581 24.5033 33.8963 23.5762 33.8963 22.5165C33.8963 21.8543 34.0273 21.1921 34.4198 20.3973L36.9065 14.0397C37.5608 12.3179 38.6078 11.3907 39.7857 11.3907C40.3092 11.3907 40.8327 11.5232 41.0944 11.9205C41.487 12.3179 41.6179 12.7152 41.6179 13.1126C41.6179 13.51 41.487 13.9073 41.3562 14.4371L41.2253 14.9668L39.2622 19.8676L39.0005 20.3973C38.8695 20.6622 38.8695 20.9271 38.8695 21.0597C38.8695 21.5894 39.2622 21.9868 39.9165 21.9868C41.487 21.9868 42.4032 21.3245 42.9267 20.1324L45.2824 14.3046C45.9367 12.5828 46.9837 11.6556 48.1616 11.6556C48.6851 11.6556 49.0777 11.7881 49.4704 12.1854C49.8629 12.5828 49.9939 12.9801 49.9939 13.51C49.9939 13.9073 49.8629 14.4371 49.4704 15.3643L46.722 21.9868ZM57.192 22.3841H57.8463C58.6315 22.3841 59.2858 22.1192 59.5477 21.457L60.8563 18.1457C60.9873 17.7484 61.1182 17.4835 61.1182 17.2186C61.1182 16.8211 60.9873 16.5563 60.5947 16.2914C60.3328 16.0265 59.9403 15.894 59.4168 15.894C58.5007 15.894 57.5845 16.4238 56.7993 17.4835C56.0141 18.543 55.6215 19.6027 55.6215 20.7946C55.7523 21.8543 56.145 22.3841 57.192 22.3841ZM64.1282 21.9868H66.3531C67.9236 21.9868 68.7089 22.5165 68.7089 23.7086C68.7089 24.5033 68.4471 25.0332 67.7927 25.4305C67.2692 25.8278 66.4839 26.0927 65.437 26.0927H62.9504C61.9034 26.0927 61.249 25.6954 60.7255 24.9006C59.9403 25.6954 59.0242 26.0927 58.108 26.0927H55.7523C54.3126 26.0927 53.2658 25.5629 52.3496 24.6357C51.4334 23.7086 51.0408 22.3841 51.0408 20.7946C51.0408 18.4106 51.8261 16.1589 53.5275 14.3046C55.2288 12.3179 57.061 11.3907 59.155 11.3907C60.7255 11.3907 61.9034 11.9205 62.8195 12.9801L67.0074 2.649C67.7927 0.927152 68.7089 0 70.0176 0C70.5411 0 71.0646 0.13245 71.4573 0.529802C71.8498 0.927152 71.9806 1.3245 71.9806 1.8543C71.9806 2.25165 71.8498 2.649 71.7189 3.17881L71.4573 3.70862L64.1282 21.9868ZM73.0276 30.7284H70.5411C67.9236 30.7284 66.6149 31.5232 66.6149 33.3775C66.6149 34.0397 66.7457 34.4371 67.1384 34.8344C67.5309 35.2318 68.0544 35.3643 68.5779 35.3643C69.3632 35.3643 70.1484 34.967 70.8028 34.3046C71.5881 33.6424 72.2424 32.4503 73.0276 30.7284ZM79.7022 27.1524H81.927C83.4975 27.1524 84.2829 27.6821 84.2829 28.7417C84.2829 29.5365 84.021 30.0662 83.4975 30.4635C82.974 30.8609 82.1889 31.1259 81.1418 31.1259H78.1318C77.7392 32.1854 77.0848 33.6424 76.1686 35.3643C74.4673 38.4106 72.1116 40 68.9706 40C67.0074 40 65.437 39.3378 64.1282 38.2781C62.8195 37.0862 62.1652 35.6292 62.1652 33.9073C62.1652 32.7152 62.5577 31.5232 63.2122 30.4635C63.8665 29.404 64.9135 28.6092 65.9605 28.0795C67.2692 27.4173 69.2323 27.1524 71.8498 27.1524H74.86L75.3835 25.8278C74.4673 26.2252 73.5511 26.3576 72.8968 26.3576C71.5881 26.3576 70.4102 25.9603 69.6249 25.2981C68.8397 24.6357 68.3162 23.8411 68.3162 22.649C68.3162 21.9868 68.5779 21.0597 69.1014 19.7351L71.1954 14.7019L71.4573 14.1722C72.1116 12.7152 73.0276 12.053 74.2055 12.053C74.729 12.053 75.2525 12.1854 75.6451 12.5828C76.0378 12.9801 76.1686 13.3775 76.1686 13.9073C76.1686 14.3046 76.0378 14.8344 75.6451 15.6292L73.813 20C73.5511 20.6622 73.4203 21.1921 73.4203 21.3245C73.4203 21.9868 73.8129 22.2516 74.5981 22.2516C75.1216 22.2516 75.776 22.1192 76.2995 21.7219C76.9538 21.3245 77.3465 21.0597 77.4773 20.5298L79.964 14.4371L80.0948 13.9073C80.6183 12.4503 81.6654 11.7881 82.974 11.7881C83.4975 11.7881 84.021 11.9205 84.2829 12.3179C84.6754 12.7152 84.8064 13.1126 84.8064 13.6424C84.8064 14.0397 84.6754 14.4371 84.5445 14.8344L84.2829 15.3643L79.7022 27.1524ZM87.6856 20.3973C88.2091 21.1921 88.9943 21.457 89.6486 21.457C90.1721 21.457 90.6956 21.3245 91.0883 20.9271C91.6118 20.5298 92.1353 19.8676 92.5279 19.0729C92.9205 18.2781 93.1823 17.4835 93.1823 16.8211C93.1823 16.2914 93.0514 15.894 92.7896 15.4967C92.5279 15.0994 92.1353 14.9668 91.6118 14.9668C90.5648 14.9668 89.6486 15.7616 88.9943 17.4835L87.6856 20.3973ZM91.4809 11.6556C92.0044 11.5232 92.5279 11.3907 92.9205 11.3907C94.3601 11.3907 95.4071 11.9205 96.3233 12.9801C97.2393 14.0397 97.632 15.4967 97.632 17.2186C97.632 20.5298 96.4541 23.1789 93.9675 25.1656C93.0514 25.8278 92.1353 26.0927 91.2191 26.0927H89.5178C88.3399 26.0927 87.2929 25.6954 86.5077 24.7682C85.9842 25.6954 85.1989 26.0927 84.1519 26.0927C83.6285 26.0927 83.2359 25.9603 82.8432 25.5629C82.4505 25.1656 82.3197 24.7682 82.3197 24.2384C82.3197 23.8411 82.4505 23.4437 82.5815 22.9138L82.8432 22.3841L90.4339 2.78146L90.6956 2.25165C91.2191 0.794702 92.1353 0.13245 93.3131 0.13245C93.8366 0.13245 94.3601 0.2649 94.6218 0.662252C95.0145 1.0596 95.1453 1.45695 95.1453 1.98676C95.1453 2.38411 95.0145 2.78146 94.8836 3.31126L94.6218 3.84106L91.4809 11.6556ZM104.699 22.3841H105.092C106.139 22.3841 106.793 21.9868 107.055 21.1921L108.364 18.1457C108.495 17.7484 108.625 17.351 108.625 17.0862C108.625 16.8211 108.495 16.5563 108.233 16.2914C107.84 16.0265 107.448 15.894 107.055 15.894C106.139 15.894 105.354 16.4238 104.437 17.351C103.652 18.4106 103.129 19.4702 103.129 20.5298C103.129 21.8543 103.652 22.3841 104.699 22.3841ZM111.505 21.9868H113.599C115.169 21.9868 115.954 22.5165 115.954 23.7086C115.954 24.5033 115.693 25.0332 115.169 25.5629C114.646 25.9603 113.86 26.2252 112.813 26.2252H110.327C109.28 26.2252 108.495 25.8278 108.102 24.9006C107.186 25.6954 106.27 26.2252 105.354 26.2252H103.26C101.82 26.2252 100.773 25.6954 99.8568 24.7682C98.9407 23.8411 98.5481 22.5165 98.5481 20.7946C98.5481 18.4106 99.3333 16.1589 101.035 14.3046C102.736 12.4503 104.568 11.3907 106.662 11.3907C108.233 11.3907 109.411 11.9205 110.196 13.1126C110.85 12.1854 111.635 11.6556 112.682 11.6556C113.206 11.6556 113.729 11.7881 114.122 12.1854C114.515 12.5828 114.646 12.9801 114.646 13.51C114.646 13.9073 114.515 14.3046 114.384 14.8344L114.122 15.3643L111.505 21.9868ZM120.535 30.7284H118.048C115.431 30.7284 114.122 31.5232 114.122 33.3775C114.122 34.0397 114.253 34.4371 114.646 34.8344C115.038 35.2318 115.431 35.3643 116.085 35.3643C116.87 35.3643 117.656 34.967 118.31 34.3046C118.964 33.6424 119.75 32.4503 120.535 30.7284ZM127.21 27.1524H129.434C131.005 27.1524 131.79 27.6821 131.79 28.7417C131.79 29.5365 131.528 30.0662 131.005 30.4635C130.481 30.8609 129.696 31.1259 128.649 31.1259H125.639C125.246 32.1854 124.592 33.6424 123.676 35.3643C121.975 38.4106 119.619 40 116.478 40C114.515 40 112.944 39.3378 111.635 38.2781C110.327 37.0862 109.672 35.6292 109.672 33.9073C109.672 32.7152 110.065 31.5232 110.719 30.4635C111.374 29.404 112.421 28.6092 113.468 28.0795C114.776 27.4173 116.74 27.1524 119.357 27.1524H122.367L122.891 25.8278C121.975 26.2252 121.058 26.3576 120.404 26.3576C119.095 26.3576 117.917 25.9603 117.132 25.2981C116.347 24.6357 115.823 23.8411 115.823 22.649C115.823 21.9868 116.085 21.0597 116.609 19.7351L118.703 14.7019L118.964 14.1722C119.619 12.7152 120.535 12.053 121.713 12.053C122.236 12.053 122.76 12.1854 123.152 12.5828C123.545 12.9801 123.676 13.3775 123.676 13.9073C123.676 14.3046 123.545 14.8344 123.152 15.6292L121.32 20C121.058 20.6622 120.928 21.1921 120.928 21.3245C120.928 21.9868 121.32 22.2516 122.105 22.2516C122.629 22.2516 123.283 22.1192 123.807 21.7219C124.461 21.3245 124.854 21.0597 124.985 20.5298L127.471 14.4371L127.733 13.9073C128.256 12.4503 129.303 11.7881 130.481 11.7881C131.005 11.7881 131.528 11.9205 131.921 12.3179C132.314 12.7152 132.444 13.1126 132.444 13.6424C132.444 14.0397 132.314 14.4371 132.183 14.8344L131.921 15.3643L127.21 27.1524Z" fill="#00C471"/>
</svg>
