<svg width="203" height="38" viewBox="0 0 203 38" fill="none" xmlns="http://www.w3.org/2000/svg">
<path d="M101.492 0L105.712 12.9868H119.367L108.32 21.0132L112.539 34L101.492 25.9737L90.4447 34L94.6644 21.0132L83.6171 12.9868H97.2723L101.492 0Z" fill="#14D596"/>
<path d="M184.189 0L188.409 12.9868H202.064L191.017 21.0132L195.237 34L184.189 25.9737L173.142 34L177.362 21.0132L166.314 12.9868H179.97L184.189 0Z" fill="#14D596"/>
<path d="M60.1434 0L64.3631 12.9868H78.0182L66.971 21.0132L71.1906 34L60.1434 25.9737L49.0961 34L53.3158 21.0132L42.2685 12.9868H55.9237L60.1434 0Z" fill="#14D596"/>
<path d="M142.84 0L147.059 12.9868H160.715L149.667 21.0132L153.887 34L142.84 25.9737L131.792 34L136.012 21.0132L124.965 12.9868H138.62L142.84 0Z" fill="#14D596"/>
<path d="M18.7947 0L23.0144 12.9868H36.6696L25.6223 21.0132L29.842 34L18.7947 25.9737L7.74747 34L11.9671 21.0132L0.91988 12.9868H14.5751L18.7947 0Z" fill="#14D596"/>
</svg>
