<svg width="54" height="10" viewBox="0 0 54 10" fill="none" xmlns="http://www.w3.org/2000/svg">
<path fill-rule="evenodd" clip-rule="evenodd" d="M5.87785 3.45492L4.75528 0L3.63271 3.45492H0L2.93893 5.59017L1.81636 9.04508L4.75528 6.90983L7.69421 9.04508L6.57164 5.59017L9.51056 3.45492H5.87785ZM16.8779 3.45492L15.7553 0L14.6327 3.45492H11L13.9389 5.59017L12.8164 9.04508L15.7553 6.90983L18.6942 9.04508L17.5716 5.59017L20.5106 3.45492H16.8779ZM26.7553 0L27.8779 3.45492H31.5106L28.5716 5.59017L29.6942 9.04508L26.7553 6.90983L23.8164 9.04508L24.9389 5.59017L22 3.45492H25.6327L26.7553 0ZM48.7553 0L49.8779 3.45492H53.5106L50.5716 5.59017L51.6942 9.04508L48.7553 6.90983L45.8164 9.04508L46.9389 5.59017L44 3.45492H47.6327L48.7553 0ZM37.7553 0L38.8779 3.45492H42.5106L39.5716 5.59017L40.6942 9.04508L37.7553 6.90983L34.8164 9.04508L35.9389 5.59017L33 3.45492H36.6327L37.7553 0Z" fill="url(#paint0_linear)"/>
<defs>
<linearGradient id="paint0_linear" x1="-0.24469" y1="6.99999" x2="53.7553" y2="7" gradientUnits="userSpaceOnUse">
<stop stop-color="#00C56A"/>
<stop offset="1" stop-color="#2AE1C1"/>
</linearGradient>
</defs>
</svg>
